%TF.GenerationSoftware,KiCad,Pcbnew,(5.1.10)-1*%
%TF.CreationDate,2021-09-10T13:44:00+03:00*%
%TF.ProjectId,flip-flop,666c6970-2d66-46c6-9f70-2e6b69636164,rev?*%
%TF.SameCoordinates,Original*%
%TF.FileFunction,Legend,Top*%
%TF.FilePolarity,Positive*%
%FSLAX46Y46*%
G04 Gerber Fmt 4.6, Leading zero omitted, Abs format (unit mm)*
G04 Created by KiCad (PCBNEW (5.1.10)-1) date 2021-09-10 13:44:00*
%MOMM*%
%LPD*%
G01*
G04 APERTURE LIST*
%ADD10C,0.120000*%
%ADD11C,0.150000*%
G04 APERTURE END LIST*
D10*
%TO.C,C1*%
X165315000Y-92825000D02*
G75*
G03*
X165315000Y-92825000I-2120000J0D01*
G01*
X162355000Y-92825000D02*
X161115000Y-92825000D01*
X165275000Y-92825000D02*
X164035000Y-92825000D01*
X162355000Y-92865000D02*
X161115000Y-92865000D01*
X165275000Y-92865000D02*
X164035000Y-92865000D01*
X162355000Y-92905000D02*
X161116000Y-92905000D01*
X165274000Y-92905000D02*
X164035000Y-92905000D01*
X165272000Y-92945000D02*
X164035000Y-92945000D01*
X162355000Y-92945000D02*
X161118000Y-92945000D01*
X165269000Y-92985000D02*
X164035000Y-92985000D01*
X162355000Y-92985000D02*
X161121000Y-92985000D01*
X165266000Y-93025000D02*
X164035000Y-93025000D01*
X162355000Y-93025000D02*
X161124000Y-93025000D01*
X165262000Y-93065000D02*
X164035000Y-93065000D01*
X162355000Y-93065000D02*
X161128000Y-93065000D01*
X165257000Y-93105000D02*
X164035000Y-93105000D01*
X162355000Y-93105000D02*
X161133000Y-93105000D01*
X165251000Y-93145000D02*
X164035000Y-93145000D01*
X162355000Y-93145000D02*
X161139000Y-93145000D01*
X165245000Y-93185000D02*
X164035000Y-93185000D01*
X162355000Y-93185000D02*
X161145000Y-93185000D01*
X165237000Y-93225000D02*
X164035000Y-93225000D01*
X162355000Y-93225000D02*
X161153000Y-93225000D01*
X165229000Y-93265000D02*
X164035000Y-93265000D01*
X162355000Y-93265000D02*
X161161000Y-93265000D01*
X165220000Y-93305000D02*
X164035000Y-93305000D01*
X162355000Y-93305000D02*
X161170000Y-93305000D01*
X165211000Y-93345000D02*
X164035000Y-93345000D01*
X162355000Y-93345000D02*
X161179000Y-93345000D01*
X165200000Y-93385000D02*
X164035000Y-93385000D01*
X162355000Y-93385000D02*
X161190000Y-93385000D01*
X165189000Y-93425000D02*
X164035000Y-93425000D01*
X162355000Y-93425000D02*
X161201000Y-93425000D01*
X165177000Y-93465000D02*
X164035000Y-93465000D01*
X162355000Y-93465000D02*
X161213000Y-93465000D01*
X165163000Y-93505000D02*
X164035000Y-93505000D01*
X162355000Y-93505000D02*
X161227000Y-93505000D01*
X165149000Y-93546000D02*
X164035000Y-93546000D01*
X162355000Y-93546000D02*
X161241000Y-93546000D01*
X165135000Y-93586000D02*
X164035000Y-93586000D01*
X162355000Y-93586000D02*
X161255000Y-93586000D01*
X165119000Y-93626000D02*
X164035000Y-93626000D01*
X162355000Y-93626000D02*
X161271000Y-93626000D01*
X165102000Y-93666000D02*
X164035000Y-93666000D01*
X162355000Y-93666000D02*
X161288000Y-93666000D01*
X165084000Y-93706000D02*
X164035000Y-93706000D01*
X162355000Y-93706000D02*
X161306000Y-93706000D01*
X165065000Y-93746000D02*
X164035000Y-93746000D01*
X162355000Y-93746000D02*
X161325000Y-93746000D01*
X165046000Y-93786000D02*
X164035000Y-93786000D01*
X162355000Y-93786000D02*
X161344000Y-93786000D01*
X165025000Y-93826000D02*
X164035000Y-93826000D01*
X162355000Y-93826000D02*
X161365000Y-93826000D01*
X165003000Y-93866000D02*
X164035000Y-93866000D01*
X162355000Y-93866000D02*
X161387000Y-93866000D01*
X164980000Y-93906000D02*
X164035000Y-93906000D01*
X162355000Y-93906000D02*
X161410000Y-93906000D01*
X164955000Y-93946000D02*
X164035000Y-93946000D01*
X162355000Y-93946000D02*
X161435000Y-93946000D01*
X164930000Y-93986000D02*
X164035000Y-93986000D01*
X162355000Y-93986000D02*
X161460000Y-93986000D01*
X164903000Y-94026000D02*
X164035000Y-94026000D01*
X162355000Y-94026000D02*
X161487000Y-94026000D01*
X164875000Y-94066000D02*
X164035000Y-94066000D01*
X162355000Y-94066000D02*
X161515000Y-94066000D01*
X164845000Y-94106000D02*
X164035000Y-94106000D01*
X162355000Y-94106000D02*
X161545000Y-94106000D01*
X164814000Y-94146000D02*
X164035000Y-94146000D01*
X162355000Y-94146000D02*
X161576000Y-94146000D01*
X164782000Y-94186000D02*
X164035000Y-94186000D01*
X162355000Y-94186000D02*
X161608000Y-94186000D01*
X164747000Y-94226000D02*
X164035000Y-94226000D01*
X162355000Y-94226000D02*
X161643000Y-94226000D01*
X164711000Y-94266000D02*
X164035000Y-94266000D01*
X162355000Y-94266000D02*
X161679000Y-94266000D01*
X164673000Y-94306000D02*
X164035000Y-94306000D01*
X162355000Y-94306000D02*
X161717000Y-94306000D01*
X164633000Y-94346000D02*
X164035000Y-94346000D01*
X162355000Y-94346000D02*
X161757000Y-94346000D01*
X164591000Y-94386000D02*
X164035000Y-94386000D01*
X162355000Y-94386000D02*
X161799000Y-94386000D01*
X164546000Y-94426000D02*
X161844000Y-94426000D01*
X164499000Y-94466000D02*
X161891000Y-94466000D01*
X164449000Y-94506000D02*
X161941000Y-94506000D01*
X164395000Y-94546000D02*
X161995000Y-94546000D01*
X164337000Y-94586000D02*
X162053000Y-94586000D01*
X164275000Y-94626000D02*
X162115000Y-94626000D01*
X164208000Y-94666000D02*
X162182000Y-94666000D01*
X164135000Y-94706000D02*
X162255000Y-94706000D01*
X164054000Y-94746000D02*
X162336000Y-94746000D01*
X163963000Y-94786000D02*
X162427000Y-94786000D01*
X163859000Y-94826000D02*
X162531000Y-94826000D01*
X163732000Y-94866000D02*
X162658000Y-94866000D01*
X163565000Y-94906000D02*
X162825000Y-94906000D01*
X164390000Y-90555199D02*
X164390000Y-90955199D01*
X164590000Y-90755199D02*
X164190000Y-90755199D01*
%TO.C,C2*%
X164590000Y-105360199D02*
X164190000Y-105360199D01*
X164390000Y-105160199D02*
X164390000Y-105560199D01*
X163565000Y-109511000D02*
X162825000Y-109511000D01*
X163732000Y-109471000D02*
X162658000Y-109471000D01*
X163859000Y-109431000D02*
X162531000Y-109431000D01*
X163963000Y-109391000D02*
X162427000Y-109391000D01*
X164054000Y-109351000D02*
X162336000Y-109351000D01*
X164135000Y-109311000D02*
X162255000Y-109311000D01*
X164208000Y-109271000D02*
X162182000Y-109271000D01*
X164275000Y-109231000D02*
X162115000Y-109231000D01*
X164337000Y-109191000D02*
X162053000Y-109191000D01*
X164395000Y-109151000D02*
X161995000Y-109151000D01*
X164449000Y-109111000D02*
X161941000Y-109111000D01*
X164499000Y-109071000D02*
X161891000Y-109071000D01*
X164546000Y-109031000D02*
X161844000Y-109031000D01*
X162355000Y-108991000D02*
X161799000Y-108991000D01*
X164591000Y-108991000D02*
X164035000Y-108991000D01*
X162355000Y-108951000D02*
X161757000Y-108951000D01*
X164633000Y-108951000D02*
X164035000Y-108951000D01*
X162355000Y-108911000D02*
X161717000Y-108911000D01*
X164673000Y-108911000D02*
X164035000Y-108911000D01*
X162355000Y-108871000D02*
X161679000Y-108871000D01*
X164711000Y-108871000D02*
X164035000Y-108871000D01*
X162355000Y-108831000D02*
X161643000Y-108831000D01*
X164747000Y-108831000D02*
X164035000Y-108831000D01*
X162355000Y-108791000D02*
X161608000Y-108791000D01*
X164782000Y-108791000D02*
X164035000Y-108791000D01*
X162355000Y-108751000D02*
X161576000Y-108751000D01*
X164814000Y-108751000D02*
X164035000Y-108751000D01*
X162355000Y-108711000D02*
X161545000Y-108711000D01*
X164845000Y-108711000D02*
X164035000Y-108711000D01*
X162355000Y-108671000D02*
X161515000Y-108671000D01*
X164875000Y-108671000D02*
X164035000Y-108671000D01*
X162355000Y-108631000D02*
X161487000Y-108631000D01*
X164903000Y-108631000D02*
X164035000Y-108631000D01*
X162355000Y-108591000D02*
X161460000Y-108591000D01*
X164930000Y-108591000D02*
X164035000Y-108591000D01*
X162355000Y-108551000D02*
X161435000Y-108551000D01*
X164955000Y-108551000D02*
X164035000Y-108551000D01*
X162355000Y-108511000D02*
X161410000Y-108511000D01*
X164980000Y-108511000D02*
X164035000Y-108511000D01*
X162355000Y-108471000D02*
X161387000Y-108471000D01*
X165003000Y-108471000D02*
X164035000Y-108471000D01*
X162355000Y-108431000D02*
X161365000Y-108431000D01*
X165025000Y-108431000D02*
X164035000Y-108431000D01*
X162355000Y-108391000D02*
X161344000Y-108391000D01*
X165046000Y-108391000D02*
X164035000Y-108391000D01*
X162355000Y-108351000D02*
X161325000Y-108351000D01*
X165065000Y-108351000D02*
X164035000Y-108351000D01*
X162355000Y-108311000D02*
X161306000Y-108311000D01*
X165084000Y-108311000D02*
X164035000Y-108311000D01*
X162355000Y-108271000D02*
X161288000Y-108271000D01*
X165102000Y-108271000D02*
X164035000Y-108271000D01*
X162355000Y-108231000D02*
X161271000Y-108231000D01*
X165119000Y-108231000D02*
X164035000Y-108231000D01*
X162355000Y-108191000D02*
X161255000Y-108191000D01*
X165135000Y-108191000D02*
X164035000Y-108191000D01*
X162355000Y-108151000D02*
X161241000Y-108151000D01*
X165149000Y-108151000D02*
X164035000Y-108151000D01*
X162355000Y-108110000D02*
X161227000Y-108110000D01*
X165163000Y-108110000D02*
X164035000Y-108110000D01*
X162355000Y-108070000D02*
X161213000Y-108070000D01*
X165177000Y-108070000D02*
X164035000Y-108070000D01*
X162355000Y-108030000D02*
X161201000Y-108030000D01*
X165189000Y-108030000D02*
X164035000Y-108030000D01*
X162355000Y-107990000D02*
X161190000Y-107990000D01*
X165200000Y-107990000D02*
X164035000Y-107990000D01*
X162355000Y-107950000D02*
X161179000Y-107950000D01*
X165211000Y-107950000D02*
X164035000Y-107950000D01*
X162355000Y-107910000D02*
X161170000Y-107910000D01*
X165220000Y-107910000D02*
X164035000Y-107910000D01*
X162355000Y-107870000D02*
X161161000Y-107870000D01*
X165229000Y-107870000D02*
X164035000Y-107870000D01*
X162355000Y-107830000D02*
X161153000Y-107830000D01*
X165237000Y-107830000D02*
X164035000Y-107830000D01*
X162355000Y-107790000D02*
X161145000Y-107790000D01*
X165245000Y-107790000D02*
X164035000Y-107790000D01*
X162355000Y-107750000D02*
X161139000Y-107750000D01*
X165251000Y-107750000D02*
X164035000Y-107750000D01*
X162355000Y-107710000D02*
X161133000Y-107710000D01*
X165257000Y-107710000D02*
X164035000Y-107710000D01*
X162355000Y-107670000D02*
X161128000Y-107670000D01*
X165262000Y-107670000D02*
X164035000Y-107670000D01*
X162355000Y-107630000D02*
X161124000Y-107630000D01*
X165266000Y-107630000D02*
X164035000Y-107630000D01*
X162355000Y-107590000D02*
X161121000Y-107590000D01*
X165269000Y-107590000D02*
X164035000Y-107590000D01*
X162355000Y-107550000D02*
X161118000Y-107550000D01*
X165272000Y-107550000D02*
X164035000Y-107550000D01*
X165274000Y-107510000D02*
X164035000Y-107510000D01*
X162355000Y-107510000D02*
X161116000Y-107510000D01*
X165275000Y-107470000D02*
X164035000Y-107470000D01*
X162355000Y-107470000D02*
X161115000Y-107470000D01*
X165275000Y-107430000D02*
X164035000Y-107430000D01*
X162355000Y-107430000D02*
X161115000Y-107430000D01*
X165315000Y-107430000D02*
G75*
G03*
X165315000Y-107430000I-2120000J0D01*
G01*
%TO.C,D1*%
X154015000Y-93155000D02*
X154015000Y-93311000D01*
X154015000Y-90839000D02*
X154015000Y-90995000D01*
X156616130Y-93154837D02*
G75*
G02*
X154534039Y-93155000I-1041130J1079837D01*
G01*
X156616130Y-90995163D02*
G75*
G03*
X154534039Y-90995000I-1041130J-1079837D01*
G01*
X157247335Y-93153608D02*
G75*
G02*
X154015000Y-93310516I-1672335J1078608D01*
G01*
X157247335Y-90996392D02*
G75*
G03*
X154015000Y-90839484I-1672335J-1078608D01*
G01*
%TO.C,D2*%
X154015000Y-105444000D02*
X154015000Y-105600000D01*
X154015000Y-107760000D02*
X154015000Y-107916000D01*
X157247335Y-105601392D02*
G75*
G03*
X154015000Y-105444484I-1672335J-1078608D01*
G01*
X157247335Y-107758608D02*
G75*
G02*
X154015000Y-107915516I-1672335J1078608D01*
G01*
X156616130Y-105600163D02*
G75*
G03*
X154534039Y-105600000I-1041130J-1079837D01*
G01*
X156616130Y-107759837D02*
G75*
G02*
X154534039Y-107760000I-1041130J1079837D01*
G01*
%TO.C,Q1*%
X165680000Y-100860000D02*
X165680000Y-97260000D01*
X165668478Y-97221522D02*
G75*
G03*
X161230000Y-99060000I-1838478J-1838478D01*
G01*
X165668478Y-100898478D02*
G75*
G02*
X161230000Y-99060000I-1838478J1838478D01*
G01*
%TO.C,Q2*%
X158695000Y-100860000D02*
X158695000Y-97260000D01*
X158683478Y-100898478D02*
G75*
G02*
X154245000Y-99060000I-1838478J1838478D01*
G01*
X158683478Y-97221522D02*
G75*
G03*
X154245000Y-99060000I-1838478J-1838478D01*
G01*
%TO.C,R1*%
X149895001Y-91610001D02*
X146245001Y-91610001D01*
X132455001Y-91610001D02*
X136105001Y-91610001D01*
X146245001Y-89690001D02*
X136105001Y-89690001D01*
X146245001Y-93530001D02*
X146245001Y-89690001D01*
X136105001Y-93530001D02*
X146245001Y-93530001D01*
X136105001Y-89690001D02*
X136105001Y-93530001D01*
%TO.C,R2*%
X136105001Y-94840001D02*
X136105001Y-98680001D01*
X136105001Y-98680001D02*
X146245001Y-98680001D01*
X146245001Y-98680001D02*
X146245001Y-94840001D01*
X146245001Y-94840001D02*
X136105001Y-94840001D01*
X132455001Y-96760001D02*
X136105001Y-96760001D01*
X149895001Y-96760001D02*
X146245001Y-96760001D01*
%TO.C,R3*%
X149895001Y-101910001D02*
X146245001Y-101910001D01*
X132455001Y-101910001D02*
X136105001Y-101910001D01*
X146245001Y-99990001D02*
X136105001Y-99990001D01*
X146245001Y-103830001D02*
X146245001Y-99990001D01*
X136105001Y-103830001D02*
X146245001Y-103830001D01*
X136105001Y-99990001D02*
X136105001Y-103830001D01*
%TO.C,R4*%
X136105001Y-105140001D02*
X136105001Y-108980001D01*
X136105001Y-108980001D02*
X146245001Y-108980001D01*
X146245001Y-108980001D02*
X146245001Y-105140001D01*
X146245001Y-105140001D02*
X136105001Y-105140001D01*
X132455001Y-107060001D02*
X136105001Y-107060001D01*
X149895001Y-107060001D02*
X146245001Y-107060001D01*
%TO.C,SW1*%
X124515000Y-91630000D02*
X124515000Y-92555000D01*
X128215000Y-91630000D02*
X128215000Y-96330000D01*
X126640000Y-96430000D02*
X126090000Y-96430000D01*
X126640000Y-91530000D02*
X126090000Y-91530000D01*
X124515000Y-95405000D02*
X124515000Y-96330000D01*
%TO.C,C1*%
D11*
X166802142Y-92991666D02*
X166849761Y-93039285D01*
X166897380Y-93182142D01*
X166897380Y-93277380D01*
X166849761Y-93420238D01*
X166754523Y-93515476D01*
X166659285Y-93563095D01*
X166468809Y-93610714D01*
X166325952Y-93610714D01*
X166135476Y-93563095D01*
X166040238Y-93515476D01*
X165945000Y-93420238D01*
X165897380Y-93277380D01*
X165897380Y-93182142D01*
X165945000Y-93039285D01*
X165992619Y-92991666D01*
X166897380Y-92039285D02*
X166897380Y-92610714D01*
X166897380Y-92325000D02*
X165897380Y-92325000D01*
X166040238Y-92420238D01*
X166135476Y-92515476D01*
X166183095Y-92610714D01*
%TO.C,C2*%
X166802142Y-107596666D02*
X166849761Y-107644285D01*
X166897380Y-107787142D01*
X166897380Y-107882380D01*
X166849761Y-108025238D01*
X166754523Y-108120476D01*
X166659285Y-108168095D01*
X166468809Y-108215714D01*
X166325952Y-108215714D01*
X166135476Y-108168095D01*
X166040238Y-108120476D01*
X165945000Y-108025238D01*
X165897380Y-107882380D01*
X165897380Y-107787142D01*
X165945000Y-107644285D01*
X165992619Y-107596666D01*
X165992619Y-107215714D02*
X165945000Y-107168095D01*
X165897380Y-107072857D01*
X165897380Y-106834761D01*
X165945000Y-106739523D01*
X165992619Y-106691904D01*
X166087857Y-106644285D01*
X166183095Y-106644285D01*
X166325952Y-106691904D01*
X166897380Y-107263333D01*
X166897380Y-106644285D01*
%TO.C,D1*%
X154836904Y-89567380D02*
X154836904Y-88567380D01*
X155075000Y-88567380D01*
X155217857Y-88615000D01*
X155313095Y-88710238D01*
X155360714Y-88805476D01*
X155408333Y-88995952D01*
X155408333Y-89138809D01*
X155360714Y-89329285D01*
X155313095Y-89424523D01*
X155217857Y-89519761D01*
X155075000Y-89567380D01*
X154836904Y-89567380D01*
X156360714Y-89567380D02*
X155789285Y-89567380D01*
X156075000Y-89567380D02*
X156075000Y-88567380D01*
X155979761Y-88710238D01*
X155884523Y-88805476D01*
X155789285Y-88853095D01*
%TO.C,D2*%
X154836904Y-104172380D02*
X154836904Y-103172380D01*
X155075000Y-103172380D01*
X155217857Y-103220000D01*
X155313095Y-103315238D01*
X155360714Y-103410476D01*
X155408333Y-103600952D01*
X155408333Y-103743809D01*
X155360714Y-103934285D01*
X155313095Y-104029523D01*
X155217857Y-104124761D01*
X155075000Y-104172380D01*
X154836904Y-104172380D01*
X155789285Y-103267619D02*
X155836904Y-103220000D01*
X155932142Y-103172380D01*
X156170238Y-103172380D01*
X156265476Y-103220000D01*
X156313095Y-103267619D01*
X156360714Y-103362857D01*
X156360714Y-103458095D01*
X156313095Y-103600952D01*
X155741666Y-104172380D01*
X156360714Y-104172380D01*
%TO.C,J1*%
X125817380Y-101933333D02*
X126531666Y-101933333D01*
X126674523Y-101980952D01*
X126769761Y-102076190D01*
X126817380Y-102219047D01*
X126817380Y-102314285D01*
X126817380Y-100933333D02*
X126817380Y-101504761D01*
X126817380Y-101219047D02*
X125817380Y-101219047D01*
X125960238Y-101314285D01*
X126055476Y-101409523D01*
X126103095Y-101504761D01*
%TO.C,Q1*%
X160817619Y-99155238D02*
X160770000Y-99250476D01*
X160674761Y-99345714D01*
X160531904Y-99488571D01*
X160484285Y-99583809D01*
X160484285Y-99679047D01*
X160722380Y-99631428D02*
X160674761Y-99726666D01*
X160579523Y-99821904D01*
X160389047Y-99869523D01*
X160055714Y-99869523D01*
X159865238Y-99821904D01*
X159770000Y-99726666D01*
X159722380Y-99631428D01*
X159722380Y-99440952D01*
X159770000Y-99345714D01*
X159865238Y-99250476D01*
X160055714Y-99202857D01*
X160389047Y-99202857D01*
X160579523Y-99250476D01*
X160674761Y-99345714D01*
X160722380Y-99440952D01*
X160722380Y-99631428D01*
X160722380Y-98250476D02*
X160722380Y-98821904D01*
X160722380Y-98536190D02*
X159722380Y-98536190D01*
X159865238Y-98631428D01*
X159960476Y-98726666D01*
X160008095Y-98821904D01*
%TO.C,Q2*%
X153832619Y-99155238D02*
X153785000Y-99250476D01*
X153689761Y-99345714D01*
X153546904Y-99488571D01*
X153499285Y-99583809D01*
X153499285Y-99679047D01*
X153737380Y-99631428D02*
X153689761Y-99726666D01*
X153594523Y-99821904D01*
X153404047Y-99869523D01*
X153070714Y-99869523D01*
X152880238Y-99821904D01*
X152785000Y-99726666D01*
X152737380Y-99631428D01*
X152737380Y-99440952D01*
X152785000Y-99345714D01*
X152880238Y-99250476D01*
X153070714Y-99202857D01*
X153404047Y-99202857D01*
X153594523Y-99250476D01*
X153689761Y-99345714D01*
X153737380Y-99440952D01*
X153737380Y-99631428D01*
X152832619Y-98821904D02*
X152785000Y-98774285D01*
X152737380Y-98679047D01*
X152737380Y-98440952D01*
X152785000Y-98345714D01*
X152832619Y-98298095D01*
X152927857Y-98250476D01*
X153023095Y-98250476D01*
X153165952Y-98298095D01*
X153737380Y-98869523D01*
X153737380Y-98250476D01*
%TO.C,R1*%
X141008334Y-89142381D02*
X140675001Y-88666191D01*
X140436905Y-89142381D02*
X140436905Y-88142381D01*
X140817858Y-88142381D01*
X140913096Y-88190001D01*
X140960715Y-88237620D01*
X141008334Y-88332858D01*
X141008334Y-88475715D01*
X140960715Y-88570953D01*
X140913096Y-88618572D01*
X140817858Y-88666191D01*
X140436905Y-88666191D01*
X141960715Y-89142381D02*
X141389286Y-89142381D01*
X141675001Y-89142381D02*
X141675001Y-88142381D01*
X141579762Y-88285239D01*
X141484524Y-88380477D01*
X141389286Y-88428096D01*
%TO.C,R2*%
X141008334Y-94292381D02*
X140675001Y-93816191D01*
X140436905Y-94292381D02*
X140436905Y-93292381D01*
X140817858Y-93292381D01*
X140913096Y-93340001D01*
X140960715Y-93387620D01*
X141008334Y-93482858D01*
X141008334Y-93625715D01*
X140960715Y-93720953D01*
X140913096Y-93768572D01*
X140817858Y-93816191D01*
X140436905Y-93816191D01*
X141389286Y-93387620D02*
X141436905Y-93340001D01*
X141532143Y-93292381D01*
X141770239Y-93292381D01*
X141865477Y-93340001D01*
X141913096Y-93387620D01*
X141960715Y-93482858D01*
X141960715Y-93578096D01*
X141913096Y-93720953D01*
X141341667Y-94292381D01*
X141960715Y-94292381D01*
%TO.C,R3*%
X141008334Y-99442381D02*
X140675001Y-98966191D01*
X140436905Y-99442381D02*
X140436905Y-98442381D01*
X140817858Y-98442381D01*
X140913096Y-98490001D01*
X140960715Y-98537620D01*
X141008334Y-98632858D01*
X141008334Y-98775715D01*
X140960715Y-98870953D01*
X140913096Y-98918572D01*
X140817858Y-98966191D01*
X140436905Y-98966191D01*
X141341667Y-98442381D02*
X141960715Y-98442381D01*
X141627381Y-98823334D01*
X141770239Y-98823334D01*
X141865477Y-98870953D01*
X141913096Y-98918572D01*
X141960715Y-99013810D01*
X141960715Y-99251905D01*
X141913096Y-99347143D01*
X141865477Y-99394762D01*
X141770239Y-99442381D01*
X141484524Y-99442381D01*
X141389286Y-99394762D01*
X141341667Y-99347143D01*
%TO.C,R4*%
X141008334Y-104592381D02*
X140675001Y-104116191D01*
X140436905Y-104592381D02*
X140436905Y-103592381D01*
X140817858Y-103592381D01*
X140913096Y-103640001D01*
X140960715Y-103687620D01*
X141008334Y-103782858D01*
X141008334Y-103925715D01*
X140960715Y-104020953D01*
X140913096Y-104068572D01*
X140817858Y-104116191D01*
X140436905Y-104116191D01*
X141865477Y-103925715D02*
X141865477Y-104592381D01*
X141627381Y-103544762D02*
X141389286Y-104259048D01*
X142008334Y-104259048D01*
%TO.C,SW1*%
X122269761Y-95313333D02*
X122317380Y-95170476D01*
X122317380Y-94932380D01*
X122269761Y-94837142D01*
X122222142Y-94789523D01*
X122126904Y-94741904D01*
X122031666Y-94741904D01*
X121936428Y-94789523D01*
X121888809Y-94837142D01*
X121841190Y-94932380D01*
X121793571Y-95122857D01*
X121745952Y-95218095D01*
X121698333Y-95265714D01*
X121603095Y-95313333D01*
X121507857Y-95313333D01*
X121412619Y-95265714D01*
X121365000Y-95218095D01*
X121317380Y-95122857D01*
X121317380Y-94884761D01*
X121365000Y-94741904D01*
X121317380Y-94408571D02*
X122317380Y-94170476D01*
X121603095Y-93980000D01*
X122317380Y-93789523D01*
X121317380Y-93551428D01*
X122317380Y-92646666D02*
X122317380Y-93218095D01*
X122317380Y-92932380D02*
X121317380Y-92932380D01*
X121460238Y-93027619D01*
X121555476Y-93122857D01*
X121603095Y-93218095D01*
%TD*%
M02*
